<?xml version="1.0" encoding="UTF-8"?>
<svg version="1.1" xmlns="http://www.w3.org/2000/svg" width="700" height="700">
<path d="M0 0 C1.14210938 0.54269531 2.28421875 1.08539063 3.4609375 1.64453125 C18.29317085 9.17051632 31.17225322 19.41528912 43 31 C43.79664063 31.74636719 44.59328125 32.49273437 45.4140625 33.26171875 C65.17004457 52.14508678 79.26023357 77.32873225 90.6875 101.875 C91.13432129 102.82084961 91.58114258 103.76669922 92.04150391 104.74121094 C92.4441748 105.6284082 92.8468457 106.51560547 93.26171875 107.4296875 C93.80252075 108.60893799 93.80252075 108.60893799 94.35424805 109.81201172 C95.13342817 112.45209197 95.11161433 113.48417975 94 116 C91.65002441 117.22201538 91.65002441 117.22201538 88.47851562 118.25146484 C87.28816711 118.64690491 86.0978186 119.04234497 84.87139893 119.44976807 C83.54976529 119.87041773 82.2280464 120.2907996 80.90625 120.7109375 C79.53830531 121.15912313 78.17086153 121.60884023 76.80389404 122.05999756 C73.13441243 123.26688734 69.4588337 124.4540957 65.78187561 125.6379776 C61.98704334 126.86366947 58.19821019 128.10758544 54.40917969 129.35107422 C49.87001614 130.8399766 45.33062347 132.32810492 40.78875732 133.80874634 C27.75030179 138.06132667 14.76946234 142.47259924 1.8137207 146.97088623 C-0.45134294 147.75686026 -2.71780394 148.53869866 -4.984375 149.3203125 C-6.20866211 149.74586426 -7.43294922 150.17141602 -8.69433594 150.60986328 C-21.28475261 154.75971687 -34.04692103 157.6477803 -47.00390625 160.36328125 C-48.90009336 160.7633664 -50.79624651 161.16361249 -52.69236755 161.56401062 C-56.63571985 162.395303 -60.57990658 163.22249398 -64.5246582 164.04711914 C-69.57721604 165.10399779 -74.62675506 166.17462364 -79.67569065 167.24865437 C-83.57674803 168.07633707 -87.47963568 168.89510939 -91.38310051 169.71135521 C-93.24687695 170.10253711 -95.10999308 170.49687909 -96.97241402 170.89446449 C-99.56642824 171.44719339 -102.16274219 171.98745643 -104.76000977 172.5246582 C-105.52420227 172.69028259 -106.28839478 172.85590698 -107.07574463 173.02655029 C-110.96743149 173.81720395 -114.22014078 174.41825803 -118 173 C-119.51528934 170.54105742 -120.6678705 168.31053463 -121.8125 165.6875 C-122.50323396 164.21727489 -123.19993086 162.74983758 -123.90234375 161.28515625 C-124.25151855 160.55699707 -124.60069336 159.82883789 -124.96044922 159.07861328 C-129.72779575 149.54615946 -136.24957559 142.17867179 -144 135 C-162.89194808 168.06090914 -152.08385253 214.55076173 -142.72174072 248.96136475 C-137.667709 267.1316424 -131.35084397 285.07500494 -123 302 C-122.67290039 302.66660645 -122.34580078 303.33321289 -122.00878906 304.02001953 C-114.87872502 318.37405577 -105.84017826 332.12812915 -93 342 C-85.99678236 329.23919632 -83.8112289 317.01120826 -83.875 302.5625 C-83.87693359 301.50804687 -83.87886719 300.45359375 -83.88085938 299.3671875 C-83.92738088 290.8795972 -84.30339714 282.45874896 -85 274 C-78.44169339 271.32253433 -71.84733839 268.82115058 -65.15673828 266.49511719 C-64.22251478 266.16883615 -63.28829128 265.8425551 -62.32575798 265.50638676 C-49.9462917 261.19358989 -37.5411686 256.95581566 -25.125 252.75 C-23.91915001 252.34123249 -22.71330002 251.93246498 -21.47090912 251.51131058 C20.42477725 237.33797276 62.01764497 226.24052743 105.56341553 218.64205933 C110.35543362 217.74676345 115.10225105 216.66920653 119.85061646 215.56739807 C122.97412087 215.00466243 125.83405359 214.89764866 129 215 C129.65140456 218.79073089 130.29508257 222.58273657 130.9375 226.375 C131.11990234 227.43589844 131.30230469 228.49679687 131.49023438 229.58984375 C131.66748047 230.64042969 131.84472656 231.69101562 132.02734375 232.7734375 C132.27085571 234.20308838 132.27085571 234.20308838 132.51928711 235.66162109 C133.61927121 243.3006168 134.16156378 250.85935162 134.203125 258.57421875 C134.21013931 259.45265442 134.21715363 260.33109009 134.22438049 261.23614502 C134.2417737 264.05331619 134.24823206 266.87027712 134.25 269.6875 C134.25067474 270.65019806 134.25134949 271.61289612 134.25204468 272.60476685 C134.23609707 286.91752083 133.90453254 300.93356145 131 315 C130.82839355 315.83853516 130.65678711 316.67707031 130.47998047 317.54101562 C126.48849989 336.30347124 120.15443715 354.15104322 111 371 C110.67918457 371.60537598 110.35836914 372.21075195 110.02783203 372.83447266 C103.49118477 385.14089795 95.38726406 395.63355994 85.953125 405.859375 C84.37097392 407.59341258 82.89053119 409.34699382 81.4375 411.1875 C50.01343096 447.4460412 -0.11285905 461.25773049 -45.09765625 470.56445312 C-51.00796803 471.78904517 -56.9124877 473.03969234 -62.81613445 474.29590797 C-69.99624039 475.82364684 -77.17834409 477.34180507 -84.36123657 478.85638428 C-87.54420458 479.52759688 -90.72659391 480.20145705 -93.90853882 480.87750244 C-139.93186178 490.64327784 -139.93186178 490.64327784 -163.5625 490.375 C-164.30937073 490.37034729 -165.05624146 490.36569458 -165.82574463 490.36090088 C-204.30422971 490.08210828 -242.66626825 478.27424227 -273 454 C-273.56203125 453.55076172 -274.1240625 453.10152344 -274.703125 452.63867188 C-289.11777358 440.96735169 -302.01085561 427.94186159 -313 413 C-313.42619629 412.42926758 -313.85239258 411.85853516 -314.29150391 411.27050781 C-354.50783889 357.31397211 -376.20407308 286.93063515 -376.25 219.875 C-376.25067474 218.9880545 -376.25134949 218.10110901 -376.25204468 217.18728638 C-376.23448724 202.61346496 -375.56428293 188.37749658 -373 174 C-372.82839355 173.03400879 -372.65678711 172.06801758 -372.47998047 171.07275391 C-365.43343442 132.9055371 -349.35495274 97.75799073 -322.953125 69.140625 C-321.37097392 67.40658742 -319.89053119 65.65300618 -318.4375 63.8125 C-315.25542979 60.14088052 -311.70676522 57.12836058 -308 54 C-306.75476563 52.88818359 -306.75476563 52.88818359 -305.484375 51.75390625 C-280.47129152 29.91985991 -249.18747837 17.2744946 -217.15625 9.87890625 C-215.25926613 9.43905144 -215.25926613 9.43905144 -213.32395935 8.99031067 C-195.36343696 4.86222187 -177.30322106 1.18082008 -159.25415039 -2.53588867 C-154.05595694 -3.60645859 -148.85954363 -4.68541815 -143.66353703 -5.7665453 C-139.59504824 -6.61191311 -135.52554809 -7.45232902 -131.4557476 -8.29135704 C-129.5391628 -8.68717911 -127.62290703 -9.08459847 -125.7070179 -9.48377419 C-112.30159464 -12.27350384 -98.94194766 -14.7731968 -85.25 -15.625 C-84.12078125 -15.69976562 -82.9915625 -15.77453125 -81.828125 -15.8515625 C-53.3741392 -16.95488032 -25.74165592 -12.43155055 0 0 Z " fill="#BD2063" transform="translate(494,109)"/>
<path d="M0 0 C-2.75983334 1.8398889 -4.68472908 2.64243574 -7.8046875 3.59375 C-59.50118172 19.80498375 -99.08628251 52.27321229 -124.30859375 100.3515625 C-134.91050981 121.24935052 -141.41695407 143.89949108 -145 167 C-145.18473877 168.16297607 -145.36947754 169.32595215 -145.55981445 170.52416992 C-147.20008675 181.99441701 -147.35653662 193.36431519 -147.3125 204.9375 C-147.30976578 206.42825546 -147.30976578 206.42825546 -147.30697632 207.9491272 C-147.25997708 223.18162711 -146.63287804 237.96719928 -144 253 C-143.75056641 254.52004639 -143.75056641 254.52004639 -143.49609375 256.07080078 C-134.63652159 309.54816271 -114.34597182 361.07529301 -81 404 C-80.37480469 404.83144531 -79.74960937 405.66289062 -79.10546875 406.51953125 C-49.53383601 444.49020761 -6.48495589 469.06136196 41.05664062 475.59155273 C48.64430913 476.37747209 56.25288096 476.47845014 63.875 476.625 C65.54559057 476.66329992 67.21616394 476.70235797 68.88671875 476.7421875 C72.92433487 476.8368371 76.96204231 476.92132603 81 477 C81 477.66 81 478.32 81 479 C71.99428212 480.91330445 62.98675357 482.81779188 53.97696495 484.71183491 C49.79088828 485.59210582 45.6054324 486.47511152 41.42138672 487.36499023 C-6.93492011 497.64324312 -6.93492011 497.64324312 -30.5625 497.375 C-31.30937073 497.37034729 -32.05624146 497.36569458 -32.82574463 497.36090088 C-71.30422971 497.08210828 -109.66626825 485.27424227 -140 461 C-140.56203125 460.55076172 -141.1240625 460.10152344 -141.703125 459.63867188 C-156.11777358 447.96735169 -169.01085561 434.94186159 -180 420 C-180.42619629 419.42926758 -180.85239258 418.85853516 -181.29150391 418.27050781 C-221.50783889 364.31397211 -243.20407308 293.93063515 -243.25 226.875 C-243.25067474 225.9880545 -243.25134949 225.10110901 -243.25204468 224.18728638 C-243.23448724 209.61346496 -242.56428293 195.37749658 -240 181 C-239.82839355 180.03400879 -239.65678711 179.06801758 -239.47998047 178.07275391 C-232.43343442 139.9055371 -216.35495274 104.75799073 -189.953125 76.140625 C-188.37097392 74.40658742 -186.89053119 72.65300618 -185.4375 70.8125 C-182.25542979 67.14088052 -178.70676522 64.12836058 -175 61 C-173.75476563 59.88818359 -173.75476563 59.88818359 -172.484375 58.75390625 C-147.19478524 36.67849619 -115.62997323 24.12827849 -83.2578125 16.69921875 C-82.62126802 16.55201323 -81.98472355 16.4048077 -81.32888985 16.2531414 C-67.09832536 12.96284231 -52.81891593 9.905702 -38.5222168 6.91772461 C-35.04945345 6.19176735 -31.57840614 5.45791175 -28.10768032 4.72228336 C-25.38636191 4.14658975 -22.66408974 3.57551591 -19.94151497 3.00579643 C-18.0436784 2.60763928 -16.14675695 2.20512799 -14.24986267 1.80250549 C-13.10578445 1.56482956 -11.96170624 1.32715363 -10.78295898 1.08227539 C-9.78312485 0.87244522 -8.78329071 0.66261505 -7.75315857 0.44642639 C-5.11202528 0.01816497 -2.66968587 -0.08444141 0 0 Z " fill="#D06789" transform="translate(361,102)"/>
<path d="M0 0 C0 0.66 0 1.32 0 2 C-6.33280346 4.16821735 -12.66618584 6.33473688 -19 8.5 C-20.40208206 8.97936508 -20.40208206 8.97936508 -21.83248901 9.46841431 C-33.81849354 13.5649655 -45.80895468 17.64416957 -57.84179688 21.6015625 C-62.13377752 23.01807931 -66.37079748 24.51393868 -70.59545898 26.12280273 C-76.51427078 28.28203624 -82.51961093 30.20644345 -88.5 32.1875 C-89.90890078 32.65545865 -91.31775535 33.12355645 -92.7265625 33.59179688 C-96.15051015 34.72947008 -99.57508011 35.86525656 -103 37 C-103 39.92313324 -102.67071055 42.70174807 -102.2878418 45.59521484 C-99.13701942 69.86643523 -101.22373154 93.68263086 -116 114 C-123.60713251 123.85498302 -134.30180956 130.10060319 -146 134 C-146.93457031 134.31839844 -147.86914062 134.63679687 -148.83203125 134.96484375 C-162.72493535 138.91603666 -180.86893259 139.49621435 -194 133 C-195.54494141 132.24203125 -195.54494141 132.24203125 -197.12109375 131.46875 C-204.74752582 127.50494836 -204.74752582 127.50494836 -206 125 C-205.109375 122.78515625 -205.109375 122.78515625 -203.75 120.0625 C-198.3017796 108.51529954 -196.81914064 97.21863549 -196.875 84.5625 C-196.87693359 83.50804687 -196.87886719 82.45359375 -196.88085938 81.3671875 C-196.92738088 72.8795972 -197.30339714 64.45874896 -198 56 C-191.44169332 53.32253431 -184.84733807 50.82115164 -178.15673828 48.49511719 C-177.22254311 48.16884464 -176.28834793 47.8425721 -175.32584381 47.50641251 C-162.94635312 43.19359373 -150.54111582 38.9560638 -138.125 34.75 C-136.92062286 34.34167435 -135.71624573 33.93334869 -134.47537231 33.51264954 C-101.82957603 22.46663786 -69.32908345 12.45629114 -35.5 5.75 C-34.69112587 5.5892247 -33.88225174 5.4284494 -33.04886627 5.26280212 C-6.43727514 0 -6.43727514 0 0 0 Z " fill="#C95C7B" transform="translate(607,327)"/>
<path d="M0 0 C0.73734375 0.57234375 1.4746875 1.1446875 2.234375 1.734375 C2.84796875 2.18296875 3.4615625 2.6315625 4.09375 3.09375 C15.38274517 11.89709486 25.9232161 28.76948733 29.234375 42.734375 C17.45822789 45.24047575 5.67989691 47.73601322 -6.10134411 50.21806431 C-11.57169116 51.37089432 -17.04121718 52.52735816 -22.5090332 53.69213867 C-27.78512877 54.81593824 -33.06316078 55.93017607 -38.34267616 57.03779411 C-40.35723194 57.4621942 -42.37106432 57.89004316 -44.38414574 58.32138252 C-47.20242441 58.92463647 -50.02301866 59.51561095 -52.84448242 60.10375977 C-54.09389366 60.37564873 -54.09389366 60.37564873 -55.36854553 60.6530304 C-62.9586163 62.21016587 -62.9586163 62.21016587 -66.765625 60.734375 C-68.28092301 58.27541834 -69.43335133 56.04485445 -70.578125 53.421875 C-71.27023659 51.95038059 -71.96823279 50.48164065 -72.671875 49.015625 C-73.02121094 48.28730469 -73.37054688 47.55898438 -73.73046875 46.80859375 C-78.7121197 36.82649316 -85.70739837 29.25933663 -93.765625 21.734375 C-91.76813421 16.18037623 -88.52724128 12.21580674 -84.765625 7.734375 C-84.26289063 7.12207031 -83.76015625 6.50976562 -83.2421875 5.87890625 C-62.42647593 -17.2085708 -23.82937254 -17.75819483 0 0 Z " fill="#741641" transform="translate(442.765625,221.265625)"/>
<path d="M0 0 C0 0.66 0 1.32 0 2 C-6.33280346 4.16821735 -12.66618584 6.33473688 -19 8.5 C-20.40208206 8.97936508 -20.40208206 8.97936508 -21.83248901 9.46841431 C-33.81849354 13.5649655 -45.80895468 17.64416957 -57.84179688 21.6015625 C-59.11313477 22.02115234 -59.11313477 22.02115234 -60.41015625 22.44921875 C-61.11277588 22.67955811 -61.81539551 22.90989746 -62.53930664 23.1472168 C-64.49558105 23.82518748 -66.43705271 24.54583868 -68.37255859 25.28100586 C-95.01293623 35.28618595 -122.13099199 41.74214247 -149.95318604 47.50469971 C-155.00983824 48.55574289 -160.06241601 49.62601655 -165.11523438 50.6953125 C-170.78054402 51.89410681 -176.4460664 53.09149588 -182.11521912 54.27200317 C-183.38679871 54.53753242 -183.38679871 54.53753242 -184.68406677 54.8084259 C-186.26234861 55.13775636 -187.84091949 55.46570591 -189.41983032 55.79200745 C-192.34593589 56.40356815 -195.16088818 57.05362939 -198 58 C-197 55 -197 55 -195.26201153 54.06647205 C-194.4988453 53.80241912 -193.73567907 53.53836618 -192.9493866 53.26631165 C-192.07354384 52.95718621 -191.19770109 52.64806078 -190.29531765 52.32956791 C-188.8385214 51.83639151 -188.8385214 51.83639151 -187.35229492 51.33325195 C-185.82133855 50.80018385 -185.82133855 50.80018385 -184.25945377 50.2563467 C-180.83761949 49.07014431 -177.40962872 47.9031247 -173.98046875 46.73828125 C-171.56344715 45.91060998 -169.14643479 45.08291171 -166.72943115 44.25518799 C-159.5625378 41.80975996 -152.38562547 39.39489218 -145.20532751 36.98914957 C-143.19512596 36.31505726 -141.18550718 35.63925439 -139.17604446 34.9629631 C-104.82520567 23.40755886 -70.55587408 12.58215493 -34.9375 5.5625 C-34.1369305 5.40435947 -33.33636101 5.24621895 -32.51153183 5.08328629 C-6.62614966 0 -6.62614966 0 0 0 Z " fill="#E288A7" transform="translate(607,327)"/>
<path d="M0 0 C-1.9570868 0.67031719 -3.91571113 1.33614683 -5.875 2 C-6.96554687 2.37125 -8.05609375 2.7425 -9.1796875 3.125 C-12 4 -12 4 -14 4 C-13.67 3.01 -13.34 2.02 -13 1 C-11.07421875 0.234375 -11.07421875 0.234375 -8.6875 -0.25 C-7.90761719 -0.42015625 -7.12773438 -0.5903125 -6.32421875 -0.765625 C-3.92348133 -1.00771617 -2.28190412 -0.7310448 0 0 Z " fill="#C74E74" transform="translate(621,325)"/>
</svg>
